<svg xmlns="http://www.w3.org/2000/svg" xmlns:xlink="http://www.w3.org/1999/xlink" width="500" zoomAndPan="magnify" viewBox="0 0 375 374.999991" height="500" preserveAspectRatio="xMidYMid meet" version="1.0"><path fill="#354640" d="M 103.707031 275.089844 C 103.707031 275.089844 85.941406 320.589844 105.859375 330.714844 C 125.78125 340.839844 154.980469 297.03125 154.980469 297.03125 C 154.980469 297.03125 139.007812 289.339844 133.164062 276.960938 C 123.230469 278.160156 113.410156 277.535156 103.707031 275.089844 Z M 103.707031 275.089844 " fill-opacity="1" fill-rule="nonzero"/><path fill="#354640" d="M 264.859375 275.523438 C 260.742188 277.765625 256.378906 279.300781 251.769531 280.136719 C 247.15625 280.96875 242.53125 281.054688 237.890625 280.394531 C 231.8125 293.492188 214.457031 300.464844 214.457031 300.464844 C 214.457031 300.464844 250.964844 343.121094 269.628906 329.175781 C 281.703125 320.179688 264.859375 275.523438 264.859375 275.523438 Z M 264.859375 275.523438 " fill-opacity="1" fill-rule="nonzero"/><path fill="#354640" d="M 368.203125 169.941406 C 356.101562 56.027344 276.5 64.84375 255.605469 91.476562 C 239.121094 110.90625 238.558594 144.128906 263.707031 156.613281 C 275.703125 162.585938 300.878906 159.558594 302.675781 142.796875 C 293.1875 148.535156 279.011719 143.71875 276.601562 133.617188 C 271.730469 113.113281 303.980469 103.652344 313.082031 128.492188 C 326.925781 166.25 276.859375 188.808594 244.710938 160.996094 C 216.378906 136.488281 231.890625 95.039062 245.070312 79.96875 C 236.300781 71.945312 202.074219 49.207031 164.671875 74.175781 C 169.492188 77.15625 173.839844 80.714844 177.71875 84.851562 C 181.597656 88.984375 184.871094 93.550781 187.539062 98.550781 C 195 113.058594 200.359375 131.03125 193.898438 146.921875 C 193.125 148.5625 192.234375 150.136719 191.222656 151.644531 C 190.214844 153.152344 189.09375 154.570312 187.871094 155.910156 C 186.644531 157.246094 185.324219 158.484375 183.910156 159.621094 C 182.496094 160.757812 181.003906 161.78125 179.4375 162.691406 C 177.867188 163.601562 176.238281 164.390625 174.550781 165.050781 C 172.863281 165.714844 171.132812 166.25 169.363281 166.652344 C 167.59375 167.050781 165.804688 167.320312 163.996094 167.449219 C 162.1875 167.578125 160.378906 167.574219 158.570312 167.429688 C 136.753906 166.507812 126.472656 140.667969 138.46875 125.570312 C 138.898438 125.015625 139.402344 124.550781 139.992188 124.175781 C 140.582031 123.800781 141.214844 123.535156 141.894531 123.378906 C 142.578125 123.226562 143.265625 123.191406 143.957031 123.277344 C 144.648438 123.363281 145.308594 123.5625 145.929688 123.878906 C 146.328125 124.082031 146.695312 124.324219 147.035156 124.609375 C 147.378906 124.894531 147.683594 125.214844 147.953125 125.570312 C 148.222656 125.921875 148.449219 126.304688 148.632812 126.707031 C 148.816406 127.113281 148.949219 127.535156 149.039062 127.96875 C 149.128906 128.40625 149.167969 128.847656 149.15625 129.292969 C 149.144531 129.734375 149.085938 130.175781 148.976562 130.605469 C 148.867188 131.035156 148.710938 131.449219 148.507812 131.847656 C 148.304688 132.242188 148.0625 132.609375 147.777344 132.953125 C 138.238281 144.4375 142.804688 161.148438 159.109375 161.328125 C 160.582031 161.40625 162.050781 161.375 163.519531 161.230469 C 164.988281 161.085938 166.4375 160.832031 167.867188 160.46875 C 169.296875 160.105469 170.691406 159.636719 172.050781 159.058594 C 173.410156 158.484375 174.71875 157.808594 175.972656 157.035156 C 177.230469 156.261719 178.417969 155.394531 179.542969 154.441406 C 180.667969 153.484375 181.714844 152.453125 182.683594 151.335938 C 183.652344 150.222656 184.527344 149.042969 185.316406 147.796875 C 186.105469 146.550781 186.792969 145.25 187.386719 143.898438 C 192.179688 130.441406 186.949219 114.675781 180.335938 102.550781 C 154.058594 54.179688 83.761719 73.304688 82.53125 122.082031 C 39.488281 143.332031 47.023438 194.625 70.839844 209.238281 C 79.300781 186.421875 112.21875 170.480469 137.625 181.628906 C 157.160156 190.421875 167.183594 215.335938 157.75 234.84375 C 151.082031 250.070312 131.574219 255.53125 117.113281 248.148438 C 116.234375 247.703125 115.394531 247.203125 114.585938 246.640625 C 113.777344 246.074219 113.011719 245.460938 112.292969 244.789062 C 111.570312 244.121094 110.898438 243.402344 110.28125 242.636719 C 109.660156 241.871094 109.097656 241.066406 108.589844 240.222656 C 108.082031 239.378906 107.636719 238.503906 107.253906 237.597656 C 106.871094 236.691406 106.554688 235.761719 106.300781 234.8125 C 106.046875 233.859375 105.863281 232.894531 105.746094 231.917969 C 105.628906 230.941406 105.582031 229.957031 105.605469 228.976562 C 105.617188 228.558594 105.675781 228.148438 105.78125 227.746094 C 105.886719 227.34375 106.035156 226.960938 106.226562 226.589844 C 106.417969 226.222656 106.652344 225.878906 106.921875 225.566406 C 107.191406 225.25 107.496094 224.96875 107.832031 224.722656 C 108.164062 224.472656 108.523438 224.269531 108.90625 224.101562 C 109.285156 223.9375 109.679688 223.816406 110.089844 223.742188 C 110.5 223.664062 110.910156 223.636719 111.328125 223.65625 C 111.742188 223.671875 112.152344 223.738281 112.550781 223.847656 L 113.21875 224.027344 C 113.828125 224.207031 114.390625 224.492188 114.898438 224.875 C 115.40625 225.257812 115.835938 225.714844 116.175781 226.253906 C 116.519531 226.789062 116.761719 227.371094 116.894531 227.992188 C 117.03125 228.613281 117.050781 229.242188 116.960938 229.871094 C 115.679688 241.714844 133.882812 248.148438 144.007812 241.664062 C 155.082031 234.589844 156.828125 218.59375 151.699219 206.878906 C 145.085938 190.140625 125.78125 182.605469 108.960938 187.882812 C 92.066406 192.523438 77.632812 204.648438 75.761719 225.078125 C 74.300781 240.867188 86.453125 274.269531 136.625 270.550781 C 164.570312 307.132812 209.867188 302.515625 231.046875 278.679688 C 215.046875 272.707031 201.128906 261.351562 194.742188 245.199219 C 184.488281 219.363281 201.589844 189.167969 231.070312 191.960938 C 246.785156 193.089844 261.089844 208.953125 256.863281 225.054688 C 256.234375 226.886719 255.382812 228.609375 254.304688 230.222656 C 253.230469 231.832031 251.960938 233.277344 250.507812 234.558594 C 249.054688 235.839844 247.460938 236.914062 245.722656 237.78125 C 243.988281 238.644531 242.171875 239.273438 240.273438 239.664062 C 239.910156 239.753906 239.535156 239.808594 239.160156 239.824219 C 238.78125 239.839844 238.40625 239.816406 238.035156 239.753906 C 237.664062 239.691406 237.300781 239.59375 236.949219 239.457031 C 236.597656 239.320312 236.261719 239.148438 235.945312 238.941406 C 235.628906 238.738281 235.339844 238.5 235.070312 238.234375 C 234.804688 237.96875 234.566406 237.679688 234.355469 237.363281 C 234.148438 237.046875 233.976562 236.714844 233.835938 236.363281 C 233.699219 236.015625 233.597656 235.652344 233.53125 235.28125 C 233.433594 234.632812 233.449219 233.988281 233.585938 233.34375 C 233.722656 232.703125 233.964844 232.105469 234.320312 231.554688 C 234.675781 231.003906 235.113281 230.53125 235.640625 230.140625 C 236.167969 229.746094 236.746094 229.460938 237.378906 229.28125 C 245.554688 226.976562 248.761719 220.207031 247.300781 212.132812 C 242.171875 197.292969 219.253906 195.34375 208.203125 207.46875 C 196.382812 219.515625 199.539062 239.945312 209.433594 252.839844 C 232.507812 282.726562 284.730469 274.191406 297.058594 231.71875 C 365.101562 277.625 373.175781 216.671875 368.203125 169.941406 Z M 368.203125 169.941406 " fill-opacity="1" fill-rule="nonzero"/></svg>